<?xml version="1.0" encoding="utf-8"?>
<!-- Generator: Adobe Illustrator 15.1.0, SVG Export Plug-In  -->
<!DOCTYPE svg PUBLIC "-//W3C//DTD SVG 1.1//EN" "http://www.w3.org/Graphics/SVG/1.1/DTD/svg11.dtd" [
	<!ENTITY ns_flows "http://ns.adobe.com/Flows/1.0/">
]>
<svg version="1.1"
	 xmlns="http://www.w3.org/2000/svg" xmlns:xlink="http://www.w3.org/1999/xlink" xmlns:a="http://ns.adobe.com/AdobeSVGViewerExtensions/3.0/"
	 x="0px" y="0px" width="660px" height="168px" viewBox="0 0 660 168" overflow="visible" enable-background="new 0 0 660 168"
	 xml:space="preserve">
<defs>
</defs>
<rect x="0" y="54.1" fill="#FFFFFF" width="617.8" height="113.8"/>
<linearGradient id="SVGID_1_" gradientUnits="userSpaceOnUse" x1="230.3232" y1="56.5215" x2="230.3232" y2="167.9056">
	<stop  offset="0" style="stop-color:#205E9B"/>
	<stop  offset="0.4969" style="stop-color:#5B90BD"/>
	<stop  offset="0.5644" style="stop-color:#004B8D"/>
	<stop  offset="1" style="stop-color:#004B8D"/>
</linearGradient>
<polygon fill="url(#SVGID_1_)" points="423.8,167.9 460.1,113.8 423.8,54.1 0.5,54.1 0.5,167.9 "/>
<linearGradient id="SVGID_2_" gradientUnits="userSpaceOnUse" x1="527.4941" y1="56.5215" x2="527.4941" y2="167.9056">
	<stop  offset="0" style="stop-color:#A2C16F"/>
	<stop  offset="0.5031" style="stop-color:#A2C16F"/>
	<stop  offset="0.5583" style="stop-color:#78AB37"/>
	<stop  offset="1" style="stop-color:#78AB37"/>
</linearGradient>
<polygon fill="url(#SVGID_2_)" points="472.1,113.3 436.7,54.1 618.3,54.1 618.3,167.9 436.7,167.9 "/>
<path fill="#FFFFFF" d="M549.1,148h-54.6v-9.5l30.4-28.5c2.3-2.2,4.3-4.6,5.9-7c1.7-2.4,2.5-5.2,2.5-8.2c0-1.9-0.4-3.6-1.1-5.1
	c-0.7-1.5-1.7-2.8-2.9-3.9c-1.2-1.1-2.7-1.9-4.3-2.5c-1.7-0.6-3.4-0.9-5.3-0.9c-3.9,0-7.1,1.2-9.6,3.5c-2.5,2.3-4.1,5.3-4.7,9
	l-10.2-1.6c0.4-2.7,1.3-5.2,2.7-7.6c1.4-2.3,3.2-4.4,5.3-6.1c2.2-1.7,4.7-3.1,7.5-4c2.8-0.9,5.9-1.4,9.1-1.4c3.2,0,6.2,0.4,9.1,1.3
	c2.9,0.9,5.5,2.2,7.7,3.9c2.2,1.7,4,3.8,5.3,6.4c1.3,2.6,2,5.5,2,8.8c0,2.3-0.3,4.4-1,6.4c-0.6,2-1.5,3.8-2.6,5.6
	c-1.1,1.8-2.4,3.4-3.9,5c-1.5,1.6-3.1,3.2-4.7,4.7l-24.8,22.8h42.2V148z"/>
<path fill="#FFFFFF" d="M581.2,148h-10.3v-60l-10.6,7.5l-6.1-6.8L572,76.1h9.3V148z"/>
<path fill="#FFFFFF" d="M91.7,132.2h-3.9l15.2-39.4h3.5l15.1,39.4h-4l-3.9-10.4H95.5L91.7,132.2z M96.8,118.1h15.5l-7.7-20.9
	L96.8,118.1z"/>
<path fill="#FFFFFF" d="M155.5,132.2H152v-17l-13.1-22.4h4.5l10.6,19.1l10.7-19.1h4.2l-13.1,22.4V132.2z"/>
<path fill="#FFFFFF" d="M210.5,125.4L210.5,125.4l11.8-32.6h5.5v39.4h-3.6V97.9h-0.1l-12.7,34.2h-1.9l-12.7-34.2h-0.1v34.2h-3.6
	V92.8h5.5L210.5,125.4z"/>
<path fill="#FFFFFF" d="M260.4,128.6h18.8v3.6h-22.4V92.8h21.8v3.6h-18.2v13.5h17v3.6h-17V128.6z"/>
<path fill="#FFFFFF" d="M330.9,126.3L330.9,126.3l0.1-33.6h3.6v39.4h-4.5l-20.4-33.9h-0.1v33.9H306V92.8h4.5L330.9,126.3z"/>
<path fill="#FFFFFF" d="M375,132.2h-3.6V96.3h-11.7v-3.6h27.1v3.6H375V132.2z"/>
<path fill="#FFFFFF" d="M45.9,132.8h-3.4V93.4h3.4v4.5H46c1-1.7,2.2-3,3.8-3.9c1.6-0.9,3.2-1.3,4.9-1.3c1.8,0,3.5,0.4,4.9,1.1
	c1.5,0.7,2.7,1.7,3.8,2.9c1,1.2,1.9,2.7,2.4,4.3c0.6,1.7,0.9,3.5,0.9,5.4c0,1.9-0.3,3.7-0.9,5.4c-0.6,1.7-1.4,3.1-2.4,4.3
	c-1,1.2-2.3,2.2-3.8,2.9c-1.5,0.7-3.1,1.1-4.9,1.1c-1.7,0-3.3-0.4-4.9-1.3c-1.6-0.9-2.9-2.1-3.8-3.8h-0.1V132.8z M63.2,106.4
	c0-1.4-0.2-2.8-0.6-4.1c-0.4-1.3-1-2.4-1.7-3.3c-0.7-0.9-1.7-1.7-2.7-2.3c-1.1-0.6-2.3-0.8-3.7-0.8c-1.3,0-2.5,0.3-3.6,0.8
	c-1.1,0.5-2,1.3-2.8,2.2c-0.8,0.9-1.4,2.1-1.9,3.3c-0.4,1.3-0.7,2.7-0.7,4.1c0,1.5,0.2,2.9,0.7,4.1c0.4,1.3,1.1,2.4,1.9,3.3
	c0.8,0.9,1.7,1.7,2.8,2.2c1.1,0.5,2.3,0.8,3.6,0.8c1.4,0,2.6-0.3,3.7-0.8c1.1-0.5,2-1.3,2.7-2.2c0.7-0.9,1.3-2.1,1.7-3.3
	C63,109.3,63.2,107.9,63.2,106.4z"/>
<path fill="#78AB37" d="M626.7,67.4c0-1.5,0.3-3,0.9-4.3c0.6-1.4,1.4-2.5,2.4-3.5c1-1,2.2-1.8,3.6-2.4c1.4-0.6,2.8-0.9,4.3-0.9
	s3,0.3,4.3,0.9c1.4,0.6,2.5,1.4,3.5,2.4c1,1,1.8,2.2,2.4,3.5c0.6,1.4,0.9,2.8,0.9,4.3s-0.3,3-0.9,4.3c-0.6,1.3-1.4,2.5-2.4,3.5
	c-1,1-2.2,1.8-3.5,2.4c-1.4,0.6-2.8,0.9-4.3,0.9s-3-0.3-4.3-0.9c-1.4-0.6-2.5-1.4-3.6-2.4c-1-1-1.8-2.2-2.4-3.5
	C627,70.4,626.7,69,626.7,67.4z M628.4,67.4c0,1.3,0.2,2.5,0.7,3.6c0.5,1.1,1.2,2.1,2,3c0.8,0.9,1.8,1.5,3,2
	c1.1,0.5,2.4,0.7,3.7,0.7c1.3,0,2.5-0.2,3.7-0.7c1.1-0.5,2.1-1.2,3-2c0.8-0.9,1.5-1.9,2-3c0.5-1.1,0.7-2.4,0.7-3.6
	c0-1.3-0.2-2.5-0.7-3.7c-0.5-1.1-1.2-2.1-2-3c-0.8-0.8-1.8-1.5-3-2c-1.1-0.5-2.4-0.7-3.7-0.7c-1.3,0-2.5,0.2-3.7,0.7
	c-1.1,0.5-2.1,1.2-3,2c-0.8,0.8-1.5,1.8-2,3C628.7,64.9,628.4,66.1,628.4,67.4z M633.5,61.1h4.4c0.6,0,1.2,0.1,1.7,0.2
	c0.6,0.1,1.1,0.3,1.5,0.6c0.4,0.3,0.8,0.7,1.1,1.1c0.3,0.5,0.4,1,0.4,1.7c0,0.9-0.3,1.7-0.8,2.2c-0.5,0.6-1.2,1-2.1,1.2l3.4,5.5
	h-2.7l-2.9-5.2h-1.6v5.2h-2.3V61.1z M637.5,66.6c0.7,0,1.3-0.1,1.9-0.4c0.6-0.2,0.9-0.7,0.9-1.5c0-0.7-0.3-1.1-0.8-1.4
	c-0.5-0.2-1.1-0.3-1.7-0.3h-2.1v3.6H637.5z"/>
<rect id="_x3C_Slice_x3E__1_" fill="none" width="660" height="168"/>
</svg>
